Coordinates
version=1
nRows=19
nColumns=33
inDegrees=yes

Units are S.I. units (second, meters, Newtons, ...)
Angles are in degrees.

endheader
time	ground_thorax_rot_x	ground_thorax_rot_y	ground_thorax_rot_z	ground_thorax_tx	ground_thorax_ty	ground_thorax_tz	clav_prot_r	clav_elev_r	scapula_abduction_r	scapula_elevation_r	scapula_upward_rot_r	scapula_winging_r	shoulder_elv_r	plane_of_elev_r	axial_rot_r	elbow_flexion_r	pro_sup_r	wrist_flex_r	wrist_dev_r	clav_prot_l	clav_elev_l	scapula_abduction_l	scapula_elevation_l	scapula_upward_rot_l	scapula_winging_l	shoulder_elv_l	plane_of_elev_l	axial_rot_l	elbow_flexion_l	pro_sup_l	wrist_flex_l	wrist_dev_l
      8.11000000	     29.55625588	     25.13143919	     34.22386943	    -97.62354890	    859.52688475	    -45.44933045	     12.37198707	     33.74087688	     25.93687602	     45.00000000	    -45.00000000	  -1170.38359254	  -4065.56488098	    159.20049086	     23.88921833	   1438.67283752	    169.44907908	     17.62415109	     13.46049605	     -5.86281969	    -45.00000000	    -40.32723547	     45.00000000	    -45.00000000	  -3492.77519812	   -448.43200580	    135.70031582	   -133.42919533	    349.41948458	     36.91203562	     13.97895579	    -18.88567164
      8.12000000	     29.47554370	     25.15188842	     34.31581751	    -98.06245546	    859.83634758	    -45.58250221	     12.44224552	     33.74635998	     25.70612505	     45.00000000	    -45.00000000	  -1170.35321576	  -4065.52755912	    159.09919157	     23.90513324	   1438.67676203	    170.29689790	     17.79187623	     13.22336248	     -5.90297549	    -45.00000000	    -40.30537749	     45.00000000	    -45.00000000	  -3492.52075015	   -448.34693696	    135.47638886	   -133.52312844	    349.34044185	     37.31688751	     14.19425209	    -19.15274108
      8.13000000	     29.57457704	     25.08182159	     34.23680930	    -98.42555268	    860.00458792	    -45.69943266	     12.28947775	     33.67681419	     25.88195636	     45.00000000	    -45.00000000	  -1170.33239277	  -4065.54829061	    159.29364343	     23.93228611	   1438.64924960	    171.14756467	     17.97890000	     13.27141411	     -5.82364699	    -45.00000000	    -40.31209197	     45.00000000	    -45.00000000	  -3492.80774275	   -448.59572380	    135.84469144	   -133.68657418	    349.47193439	     37.65420463	     13.62844927	    -19.18762878
      8.14000000	     29.44824962	     25.12708891	     34.40568517	    -98.71263441	    860.03982837	    -45.80003559	     12.36404034	     33.70292469	     25.69882031	     45.00000000	    -45.00000000	  -1170.31598307	  -4065.60879669	    159.21976011	     23.88441362	   1438.66508436	    171.97509433	     18.09085193	     13.01598998	     -5.89405648	    -45.00000000	    -40.34314359	     45.00000000	    -45.00000000	  -3492.48450314	   -448.51383575	    135.63869763	   -133.77470812	    349.44247710	     38.11243450	     13.90831548	    -19.50418017
      8.15000000	     29.54931230	     25.08999701	     34.36407968	    -98.91218739	    859.95356024	    -45.88321561	     12.28836813	     33.67349488	     25.64244322	     45.00000000	    -45.00000000	  -1170.27683930	  -4065.53527077	    159.20856060	     23.86575372	   1438.62643956	    172.64280500	     18.24538613	     12.93810354	     -5.81961777	    -45.00000000	    -40.16079972	     45.00000000	    -45.00000000	  -3492.75057237	   -448.54772550	    135.82780658	   -133.97656647	    349.45166962	     38.42328861	     13.37092754	    -19.61564535
      8.16000000	     29.43176986	     25.15413550	     34.58177411	    -99.02226401	    859.76531707	    -45.95320329	     12.34377403	     33.70240484	     25.62896650	     45.00000000	    -45.00000000	  -1170.28714692	  -4065.64077434	    159.21518248	     23.78706312	   1438.72322035	    173.20778555	     18.23569818	     12.75049099	     -5.96865833	    -45.00000000	    -40.38038125	     45.00000000	    -45.00000000	  -3492.35101760	   -448.58089735	    135.65027033	   -133.99189011	    349.53614496	     38.79867940	     13.79487841	    -19.99101054
      8.17000000	     29.53976300	     25.17339244	     34.57402905	    -99.03961036	    859.49042592	    -46.01637323	     12.26260045	     33.67687166	     25.66566806	     45.00000000	    -45.00000000	  -1170.23663429	  -4065.61661714	    159.30221520	     23.73767358	   1438.71367030	    173.76417229	     18.36652430	     12.71802364	     -5.85319840	    -45.00000000	    -40.15616564	     45.00000000	    -45.00000000	  -3492.75931720	   -448.66513281	    135.87583793	   -134.18658157	    349.50040365	     39.09794859	     13.12801533	    -20.00559983
      8.18000000	     29.50437916	     25.17778566	     34.66860428	    -98.95939474	    859.14388918	    -46.07844175	     12.33949780	     33.68057186	     25.48208372	     45.00000000	    -45.00000000	  -1170.20537385	  -4065.66110820	    159.15175548	     23.66408847	   1438.66115399	    174.20797741	     18.38224234	     12.57865077	     -5.96865310	    -45.00000000	    -40.25104905	     45.00000000	    -45.00000000	  -3492.44352687	   -448.71552246	    135.68848898	   -134.20790193	    349.59386867	     39.39833478	     13.40731444	    -20.43321875
      8.19000000	     29.59376495	     25.21133039	     34.72830821	    -98.78413797	    858.74631654	    -46.14294973	     12.26135081	     33.66484460	     25.59489094	     45.00000000	    -45.00000000	  -1170.15228807	  -4065.67943901	    159.26779157	     23.57781168	   1438.66247266	    174.62481984	     18.48666392	     12.58014209	     -5.86646415	    -45.00000000	    -40.05985163	     45.00000000	    -45.00000000	  -3492.78426614	   -448.76542197	    135.93095282	   -134.34726642	    349.60924022	     39.61269115	     12.82643149	    -20.40870655
      8.20000000	     29.51908604	     25.28100332	     34.91655193	    -98.52241534	    858.30777863	    -46.21265346	     12.34396504	     33.70220038	     25.49109247	     45.00000000	    -45.00000000	  -1170.13496555	  -4065.75645016	    159.15915286	     23.46422739	   1438.73043933	    174.97047544	     18.44239644	     12.39594296	     -6.04265075	    -45.00000000	    -40.25595547	     45.00000000	    -45.00000000	  -3492.43446013	   -448.77663046	    135.72437175	   -134.30185577	    349.64507304	     39.84245861	     13.26529650	    -20.93345511
      8.21000000	     29.68122838	     25.27824858	     34.89880140	    -98.18549016	    857.83254465	    -46.28815773	     12.25441545	     33.67165383	     25.59963181	     45.00000000	    -45.00000000	  -1170.06108706	  -4065.75268179	    159.26322024	     23.36026101	   1438.67490617	    175.33425537	     18.57770073	     12.48677213	     -5.89091584	    -45.00000000	    -39.97466800	     45.00000000	    -45.00000000	  -3492.85836278	   -448.85268965	    135.96892749	   -134.41549116	    349.67320358	     39.96629076	     12.57813601	    -20.75066547
      8.22000000	     29.57645539	     25.39021703	     35.12743425	    -97.79043407	    857.32571260	    -46.36833986	     12.36310286	     33.71827697	     25.48679973	     45.00000000	    -45.00000000	  -1170.05740901	  -4065.85449890	    159.11871486	     23.19518237	   1438.74931016	    175.62567675	     18.52128574	     12.28008348	     -6.11105315	    -45.00000000	    -40.23404935	     45.00000000	    -45.00000000	  -3492.47598250	   -448.84924624	    135.72998588	   -134.31931414	    349.67011992	     40.13273223	     13.16758321	    -21.36790712
      8.23000000	     29.72944070	     25.35310317	     35.13351327	    -97.35545371	    856.78911446	    -46.45169080	     12.31460351	     33.74462690	     25.54687350	     45.00000000	    -45.00000000	  -1170.05251349	  -4065.91041828	    159.12338756	     23.02742189	   1438.69043961	    175.96887401	     18.63119616	     12.32341366	     -6.05495661	    -45.00000000	    -40.01026425	     45.00000000	    -45.00000000	  -3492.66130818	   -448.90846797	    135.86664371	   -134.31088737	    349.75724535	     40.21834987	     12.76850320	    -21.27588218
      8.24000000	     29.71320157	     25.47011260	     35.29162763	    -96.90299873	    856.22973767	    -46.53647368	     12.31910280	     33.66929571	     25.56549855	     45.00000000	    -45.00000000	  -1169.91807488	  -4065.87005839	    159.20484833	     22.86227119	   1438.72387578	    176.18574487	     18.67617188	     12.30038490	     -6.05135492	    -45.00000000	    -40.00669133	     45.00000000	    -45.00000000	  -3492.76488935	   -448.88309452	    135.92908292	   -134.41643256	    349.72244499	     40.26239760	     12.63724310	    -21.46619048
      8.25000000	     29.79247266	     25.47854852	     35.32523335	    -96.45110866	    855.65358588	    -46.62102179	     12.30546742	     33.78087520	     25.63870565	     45.00000000	    -45.00000000	  -1169.96944514	  -4065.98551304	    159.08190735	     22.70609393	   1438.80578158	    176.33000675	     18.67464274	     12.23720526	     -6.10510067	    -45.00000000	    -39.98534605	     45.00000000	    -45.00000000	  -3492.70456717	   -448.95278344	    135.87927952	   -134.42137347	    349.82879426	     40.32183949	     12.67735712	    -21.55231109
      8.26000000	     29.71409410	     25.63438521	     35.64307031	    -96.01642571	    855.07243534	    -46.70258474	     12.34365490	     33.65003283	     25.57181640	     45.00000000	    -45.00000000	  -1169.74182219	  -4065.87507548	    159.24433405	     22.56494668	   1438.88724201	    176.40892009	     18.72492400	     12.29108105	     -6.12403476	    -45.00000000	    -39.79457735	     45.00000000	    -45.00000000	  -3492.84825076	   -448.81845780	    136.10722580	   -134.47312687	    349.86617592	     40.29474373	     12.40588845	    -21.75149942
      8.27000000	     29.95017821	     25.48791967	     35.36664412	    -95.60639444	    854.49657312	    -46.77723890	     12.28723135	     33.86824621	     25.73929782	     45.00000000	    -45.00000000	  -1169.97399457	  -4066.13987070	    158.95528264	     22.43645315	   1438.80818846	    176.40732734	     18.70259325	     12.18808076	     -6.15649853	    -45.00000000	    -39.93591579	     45.00000000	    -45.00000000	  -3492.59941496	   -449.12873792	    135.78495751	   -134.51804937	    349.96152483	     40.39840365	     12.69290573	    -21.74056927
      8.28000000	     30.00385669	     25.55386476	     35.40671472	    -95.22702055	    853.94462846	    -46.83910354	     12.33725416	     33.72581603	     25.63465314	     45.00000000	    -45.00000000	  -1169.79018662	  -4066.04476468	    159.07680195	     22.39794035	   1438.80716817	    176.34791340	     18.75905011	     12.29939660	     -6.19289477	    -45.00000000	    -39.86123254	     45.00000000	    -45.00000000	  -3492.82079366	   -449.07750462	    135.94479868	   -134.54600299	    349.82474901	     40.40636228	     12.48801713	    -21.86272495
      8.29000000	     29.98958129	     25.63863112	     35.52631992	    -94.87259610	    853.42844048	    -46.88324910	     12.34871913	     33.80437947	     25.64203974	     45.00000000	    -45.00000000	  -1169.81791555	  -4066.06726502	    159.02339135	     22.31532179	   1438.89238619	    176.19230991	     18.74182068	     12.27608895	     -6.22721012	    -45.00000000	    -39.83919310	     45.00000000	    -45.00000000	  -3492.84090617	   -449.03773217	    135.94686244	   -134.63328445	    349.81312632	     40.43967210	     12.48697519	    -21.86293295
